# xmcd CD database file
#
# Track frame offsets:
#	150
#	20621
#	37847
#	57560
#	75856
#	91482
#	112866
#	128259
#	147288
#	165712
#	184210
#	203513
#	221244
#	239699
#
# Disc length: 3439 seconds
#
# Revision: 2
# Processed by: cddbd v1.4PL0 Copyright (c) Steve Scherf et al.
# Submitted via: CDex 1.40Release
#
DISCID=b70d6d0e
DTITLE=Todo Torto - Todo Torto 2
DYEAR=2000
DGENRE=Other
TTITLE0=Addy e Eddy - Republica Todo Torto - Abertura - Forro do Todo Torto
TTITLE1=Rick e Renner - Republica Pe na Beca - Marcas de Batom
TTITLE2=Denis e Fabiano part. Marco Brasil - Republica Mato Grosso - Ta Dominado
TTITLE3=Lucas e Luan - Republica Favelados - Deixa a Pipoca Arrebentar
TTITLE4=Mauricio e Marcelo - Republica Bandeirantesao - Entornando o Caldo
TTITLE5=Ataide e Alexandre - Republica Atecubanos - Onde Tem Amor
TTITLE6=Gian e Giovani - Republica Capim Canela - Hey! Hey! Trem Bao
TTITLE7=Juliano Cesar - Republica Arrancabaco - Cowboy Vagabundo
TTITLE8=Bruno e Marrone com Moacyr Franco - Republica Subaco de Cobra - Goias eh Mais
TTITLE9=Silvio e Robson - Republica Trem Que Pula - A Coisa
TTITLE10=Joao Paulo e Daniel - Republica Os Boca de Alcool - Fogo de Amor
TTITLE11=Zanetti - Republica Pau D'Agua - Pano de Toureiro
TTITLE12=Douglas e Emerson - Republica Todo Torto - Boate Azul
TTITLE13=Mc Xo e Mc Xota - Republica Todo Torto - Encerramento - Funkrap da Xoxota
EXTD=YEAR: 2000 ID3G: 12
EXTT0=
EXTT1=
EXTT2=
EXTT3=
EXTT4=
EXTT5=
EXTT6=
EXTT7=
EXTT8=
EXTT9=
EXTT10=
EXTT11=
EXTT12=
EXTT13=
PLAYORDER=
